# xmcd
#
# Track frame offsets: 
#        225
#        15392
#        32742
#        53318
#        75646
#        92771
#        110189
#        124248
#        140533
#        155292
#        177387
#        193781
#        212842
#        226213
#        249126
#        261817
#
# Disc length: 3634 seconds
#
# Revision: 0
# Processed by: cddbd v1.5PL3 Copyright (c) Steve Scherf et al.
# Submitted via: ExactAudioCopy v0.95a4
#
DISCID=cf0e2f10
DTITLE=Der Pferdeflusterer - The Horse Whisperer
DYEAR=1998
DGENRE=Country
TTITLE0=Cattle Call
TTITLE1=A Soft Place To Fall
TTITLE2=South Wind Of Summer
TTITLE3=Still Long For You Kiss
TTITLE4=Dream River
TTITLE5=Slow Surprise
TTITLE6=Big Ball In Cowtown
TTITLE7=Leaving Train
TTITLE8=Cowboy Love Song
TTITLE9=Me And The Eagle
TTITLE10=Whispering Pines
TTITLE11=Red River Valley
TTITLE12=Indian Bird Dance
TTITLE13=Move Your Boots
TTITLE14=The Other Woman
TTITLE15=The Horse And I
EXTD=
EXTT0=
EXTT1=
EXTT2=
EXTT3=
EXTT4=
EXTT5=
EXTT6=
EXTT7=
EXTT8=
EXTT9=
EXTT10=
EXTT11=
EXTT12=
EXTT13=
EXTT14=
EXTT15=
PLAYORDER=
